HIERARCHY
ROOT hip
{
  OFFSET -17.3934 69.203 244.994
  CHANNELS 6 Xposition Yposition Zposition Zrotation Xrotation Yrotation
  JOINT abdomen
  {
    OFFSET 0 20.6881 -0.73152
    CHANNELS 3 Zrotation Xrotation Yrotation
    JOINT chest
    {
      OFFSET 0 11.7043 -0.48768
      CHANNELS 3 Zrotation Xrotation Yrotation
      JOINT neck
      {
        OFFSET 0 22.1894 -2.19456
        CHANNELS 3 Zrotation Xrotation Yrotation
        JOINT head
        {
          OFFSET -0.24384 7.07133 1.2192
          CHANNELS 3 Zrotation Xrotation Yrotation
          JOINT leftEye
          {
            OFFSET 4.14528 8.04674 8.04672
            CHANNELS 3 Zrotation Xrotation Yrotation
            End Site
            {
              OFFSET 1 0 0
            }
          }
          JOINT rightEye
          {
            OFFSET -3.6576 8.04674 8.04672
            CHANNELS 3 Zrotation Xrotation Yrotation
            End Site
            {
              OFFSET 1 0 0
            }
          }
        }
      }
      JOINT rCollar
      {
        OFFSET -2.68224 19.2634 -4.8768
        CHANNELS 3 Zrotation Xrotation Yrotation
        JOINT rShldr
        {
          OFFSET -8.77824 -1.95073 1.46304
          CHANNELS 3 Zrotation Xrotation Yrotation
          JOINT rForeArm
          {
            OFFSET -28.1742 -1.7115 0.48768
            CHANNELS 3 Zrotation Xrotation Yrotation
            JOINT rHand
            {
              OFFSET -22.5879 0.773209 7.07136
              CHANNELS 3 Zrotation Xrotation Yrotation
              JOINT rThumb1
              {
                OFFSET -1.2192 -0.487915 3.41376
                CHANNELS 3 Zrotation Xrotation Yrotation
                JOINT rThumb2
                {
                  OFFSET -3.37035 -0.52449 3.41376
                  CHANNELS 3 Zrotation Xrotation Yrotation
                  End Site
                  {
                    OFFSET -1.78271 -1.18214 1.43049
                  }
                }
              }
              JOINT rIndex1
              {
                OFFSET -7.75947 0.938293 5.60832
                CHANNELS 3 Zrotation Xrotation Yrotation
                JOINT rIndex2
                {
                  OFFSET -2.54057 -0.884171 1.56538
                  CHANNELS 3 Zrotation Xrotation Yrotation
                  End Site
                  {
                    OFFSET -1.62519 -0.234802 1.16502
                  }
                }
              }
              JOINT rMid1
              {
                OFFSET -8.24714 1.18213 3.41376
                CHANNELS 3 Zrotation Xrotation Yrotation
                JOINT rMid2
                {
                  OFFSET -3.10165 -0.590103 1.0647
                  CHANNELS 3 Zrotation Xrotation Yrotation
                  End Site
                  {
                    OFFSET -2.48547 -0.328903 0.83742
                  }
                }
              }
              JOINT rRing1
              {
                OFFSET -8.82822 0.546677 1.51678
                CHANNELS 3 Zrotation Xrotation Yrotation
                JOINT rRing2
                {
                  OFFSET -2.60934 -0.819778 -0.0198488
                  CHANNELS 3 Zrotation Xrotation Yrotation
                  End Site
                  {
                    OFFSET -2.33842 -0.294052 0.168128
                  }
                }
              }
              JOINT rPinky1
              {
                OFFSET -8.27202 -0.0477905 -0.4584
                CHANNELS 3 Zrotation Xrotation Yrotation
                JOINT rPinky2
                {
                  OFFSET -1.82734 -0.647385 -0.700984
                  CHANNELS 3 Zrotation Xrotation Yrotation
                  End Site
                  {
                    OFFSET -1.69225 -0.51767 -0.607171
                  }
                }
              }
            }
          }
        }
      }
      JOINT lCollar
      {
        OFFSET 2.68224 19.2634 -4.8768
        CHANNELS 3 Zrotation Xrotation Yrotation
        JOINT lShldr
        {
          OFFSET 8.77824 -1.95073 1.46304
          CHANNELS 3 Zrotation Xrotation Yrotation
          JOINT lForeArm
          {
            OFFSET 28.1742 -1.7115 0.48768
            CHANNELS 3 Zrotation Xrotation Yrotation
            JOINT lHand
            {
              OFFSET 22.5879 0.773209 7.07136
              CHANNELS 3 Zrotation Xrotation Yrotation
              JOINT lThumb1
              {
                OFFSET 1.2192 -0.487915 3.41376
                CHANNELS 3 Zrotation Xrotation Yrotation
                JOINT lThumb2
                {
                  OFFSET 3.37035 -0.52449 3.41376
                  CHANNELS 3 Zrotation Xrotation Yrotation
                  End Site
                  {
                    OFFSET 1.78271 -1.18214 1.43049
                  }
                }
              }
              JOINT lIndex1
              {
                OFFSET 7.75947 0.938293 5.60832
                CHANNELS 3 Zrotation Xrotation Yrotation
                JOINT lIndex2
                {
                  OFFSET 2.54057 -0.884171 1.56538
                  CHANNELS 3 Zrotation Xrotation Yrotation
                  End Site
                  {
                    OFFSET 1.62519 -0.234802 1.16502
                  }
                }
              }
              JOINT lMid1
              {
                OFFSET 8.24714 1.18213 3.41376
                CHANNELS 3 Zrotation Xrotation Yrotation
                JOINT lMid2
                {
                  OFFSET 3.10165 -0.590103 1.0647
                  CHANNELS 3 Zrotation Xrotation Yrotation
                  End Site
                  {
                    OFFSET 2.48547 -0.328903 0.83742
                  }
                }
              }
              JOINT lRing1
              {
                OFFSET 8.82822 0.546677 1.51678
                CHANNELS 3 Zrotation Xrotation Yrotation
                JOINT lRing2
                {
                  OFFSET 2.60934 -0.819778 -0.0198488
                  CHANNELS 3 Zrotation Xrotation Yrotation
                  End Site
                  {
                    OFFSET 2.33842 -0.294052 0.168128
                  }
                }
              }
              JOINT lPinky1
              {
                OFFSET 8.27202 -0.0477905 -0.4584
                CHANNELS 3 Zrotation Xrotation Yrotation
                JOINT lPinky2
                {
                  OFFSET 1.82734 -0.647385 -0.700984
                  CHANNELS 3 Zrotation Xrotation Yrotation
                  End Site
                  {
                    OFFSET 1.69225 -0.51767 -0.607171
                  }
                }
              }
            }
          }
        }
      }
    }
  }
  JOINT rButtock
  {
    OFFSET -8.77824 4.35084 1.2192
    CHANNELS 3 Zrotation Xrotation Yrotation
    JOINT rThigh
    {
      OFFSET 0 -1.70687 -2.19456
      CHANNELS 3 Zrotation Xrotation Yrotation
      JOINT rShin
      {
        OFFSET 0 -36.8199 0.73152
        CHANNELS 3 Zrotation Xrotation Yrotation
        JOINT rFoot
        {
          OFFSET 0.73152 -45.1104 -5.12064
          CHANNELS 3 Zrotation Xrotation Yrotation
          End Site
          {
            OFFSET -1.1221 -3.69964 12.103
          }
        }
      }
    }
  }
  JOINT lButtock
  {
    OFFSET 8.77824 4.35084 1.2192
    CHANNELS 3 Zrotation Xrotation Yrotation
    JOINT lThigh
    {
      OFFSET 0 -1.70687 -2.19456
      CHANNELS 3 Zrotation Xrotation Yrotation
      JOINT lShin
      {
        OFFSET 0 -36.8199 0.73152
        CHANNELS 3 Zrotation Xrotation Yrotation
        JOINT lFoot
        {
          OFFSET -0.73152 -45.1104 -5.12064
          CHANNELS 3 Zrotation Xrotation Yrotation
          End Site
          {
            OFFSET 1.1221 -3.69964 12.103
          }
        }
      }
    }
  }
}
MOTION
Frames:	4
Frame Time:	0.00833333
5.17916 75.742 -236.876 0.422023 -0.00115498 -0.00720013 -0.555337 -0.00305886 -0.0158854 -0.153307 -0.00476084 -0.026563 -1.26984e-014 -1.59028e-015 1.67725e-016 -3.81884e-014 3.18055e-015 5.20257e-016 -0 0 0 -0 0 0 -6.36254e-015 1.78596e-017 1.98785e-016 -1.31278e-013 7.0817e-016 2.18663e-015 -2.2982e-012 7.02903e-013 3.81667e-014 -2.63411e-011 -6.17028e-013 3.14875e-013 -6.21256e-011 1.78368e-013 7.95139e-013 -1.0729e-010 3.02153e-013 1.36525e-012 -6.2121e-011 1.80099e-013 7.82416e-013 7.73091 5.47488 0.417314 -6.21251e-011 1.78111e-013 7.95139e-013 2.90554 0.965183 0.102902 -6.21238e-011 1.78608e-013 7.89573e-013 10.2786 0.731801 0.0259123 -6.21284e-011 1.79701e-013 8.015e-013 2.22167 -0.733487 -0.20892 -6.36009e-015 1.74713e-017 -4.96962e-017 -1.35177e-013 4.72114e-016 3.97569e-016 -2.30605e-012 -6.75669e-013 7.31528e-014 -2.63392e-011 7.48126e-013 3.02153e-013 -6.21352e-011 1.53473e-013 7.91958e-013 -1.073e-010 2.60805e-013 1.37241e-012 -6.21409e-011 1.5545e-013 7.98319e-013 -7.73091 5.47488 -0.417314 -6.21348e-011 1.53859e-013 7.95139e-013 -2.90554 0.965183 -0.102902 -6.21381e-011 1.53362e-013 7.93548e-013 -10.2786 0.731801 -0.0259123 -6.21319e-011 1.53462e-013 7.82416e-013 -2.22167 -0.733487 0.20892 -2.03217e-016 0 -3.88251e-019 0.0644224 -2.35905 -0.0223814 -0.00798374 -1.27853 -0.0684587 -0.484711 3.63779 0.128969 2.03217e-016 0 3.88251e-019 -0.910357 -4.50048 0.0764525 0.0020215 2.60027 0.00927394 0.492898 1.9005 -0.0947763 
5.23601 72.1552 -242.103 0.548665 6.65189 1.32484 -0.290253 -1.33703 -2.3307 0.414557 -0.65697 -0.639976 -2.18367 0.997157 -0.657986 2.95184 -6.69046 -0.212671 -0 0 0 -0 0 0 4.34583e-015 -7.67429e-014 -4.51315e-014 21.5618 8.288 -3.34555 -6.39349 -3.52573 9.2206 0.000738085 0.604422 0.084929 -2.05683e-010 -3.52395e-010 9.59382e-011 -3.54758e-010 -6.08961e-010 1.67631e-010 -2.0568e-010 -3.52393e-010 9.59254e-011 7.73091 5.47488 0.417314 -2.05683e-010 -3.52394e-010 9.59373e-011 2.90554 0.965183 0.102902 -2.0568e-010 -3.52393e-010 9.59326e-011 10.2786 0.731801 0.0259123 -2.05685e-010 -3.52392e-010 9.59408e-011 2.22167 -0.733487 -0.20892 4.32022e-015 -7.67431e-014 -4.53788e-014 -21.0165 14.2347 -3.6078 8.53257 -5.42145 -11.2346 -0.0210756 -3.22502 0.450668 2.20781e-010 1.19837e-009 5.16347e-010 3.75204e-010 2.06811e-009 8.95118e-010 2.20776e-010 1.19837e-009 5.16352e-010 -7.73091 5.47488 -0.417314 2.20783e-010 1.19837e-009 5.16352e-010 -2.90554 0.965183 -0.102902 2.20778e-010 1.19837e-009 5.16349e-010 -10.2786 0.731801 -0.0259123 2.20785e-010 1.19837e-009 5.16339e-010 -2.22167 -0.733487 0.20892 -2.03217e-016 0 -3.88251e-019 0.446224 -22.6948 -1.2637 0.0607846 20.0726 0.22228 -0.680385 -0.347077 -1.86255 2.03217e-016 0 3.88251e-019 -2.39588 -9.60343 -0.426774 -0.18821 13.714 -0.353481 1.66733 -8.16531 5.72448 
5.16831 72.011 -241.47 0.341508 13.6681 2.79068 -0.133128 -2.74208 -4.78056 1.00321 -1.34009 -1.28796 -4.4687 2.05687 -1.35569 6.02124 -13.7653 -0.449604 -0 0 0 -0 0 0 1.54591e-014 -1.62797e-013 -9.50967e-014 45.4428 16.9554 -7.11759 -11.918 -6.93345 19.0568 -0.000437028 1.24873 0.175495 -3.61278e-010 -7.53337e-010 2.0519e-010 -6.22941e-010 -1.30183e-009 3.5849e-010 -3.61277e-010 -7.53334e-010 2.05177e-010 7.73091 5.47488 0.417314 -3.6128e-010 -7.53333e-010 2.05188e-010 2.90554 0.965183 0.102902 -3.61274e-010 -7.53332e-010 2.05184e-010 10.2786 0.731801 0.0259123 -3.6128e-010 -7.5333e-010 2.05189e-010 2.22167 -0.733487 -0.20892 1.54033e-014 -1.62797e-013 -9.53421e-014 -41.048 29.0831 -8.25029 15.2298 -10.406 -23.3733 0.0121139 -6.61542 0.929306 5.36844e-010 2.54887e-009 1.09762e-009 9.14136e-010 4.39874e-009 1.90278e-009 5.3684e-010 2.54888e-009 1.09762e-009 -7.73091 5.47488 -0.417314 5.36846e-010 2.54889e-009 1.09763e-009 -2.90554 0.965183 -0.102902 5.36839e-010 2.54888e-009 1.09762e-009 -10.2786 0.731801 -0.0259123 5.36848e-010 2.54889e-009 1.09761e-009 -2.22167 -0.733487 0.20892 -2.03217e-016 0 -3.88251e-019 -0.483019 -44.1806 -3.32237 -0.172882 42.6145 0.681653 -1.19137 -4.55414 -3.99457 2.03217e-016 0 3.88251e-019 -4.09324 -15.0101 -1.00091 -0.22146 25.4406 -0.793826 5.24839 -18.492 12.4678 
5.09714 71.9188 -240.734 -0.17536 19.9135 4.21458 -0.0832286 -3.97871 -6.97533 1.50838 -1.96047 -1.86777 -6.48225 2.98989 -1.97635 8.69832 -20.0702 -0.67464 -0 0 0 -0 0 0 2.57626e-014 -2.30264e-013 -1.35792e-013 67.8155 24.5078 -10.9267 -15.8846 -9.48315 28.0249 -0.00316359 1.81325 0.2549 -4.92797e-010 -1.05754e-009 2.86224e-010 -8.49696e-010 -1.82749e-009 5.00163e-010 -4.92797e-010 -1.05754e-009 2.86212e-010 7.73091 5.47488 0.417314 -4.928e-010 -1.05754e-009 2.86222e-010 2.90554 0.965183 0.102902 -4.92791e-010 -1.05754e-009 2.86219e-010 10.2786 0.731801 0.0259123 -4.92798e-010 -1.05753e-009 2.86219e-010 2.22167 -0.733487 -0.20892 2.56809e-014 -2.30264e-013 -1.36037e-013 -56.1488 41.9051 -14.1607 19.4787 -13.7576 -34.6809 0.0908272 -9.67264 1.36933 7.86614e-010 3.59479e-009 1.54746e-009 1.34021e-009 6.20382e-009 2.68261e-009 7.86611e-010 3.5948e-009 1.54746e-009 -7.73091 5.47488 -0.417314 7.86618e-010 3.59481e-009 1.54746e-009 -2.90554 0.965183 -0.102902 7.86609e-010 3.5948e-009 1.54746e-009 -10.2786 0.731801 -0.0259123 7.86619e-010 3.59481e-009 1.54745e-009 -2.22167 -0.733487 0.20892 -2.03217e-016 0 -3.88251e-019 -4.18153 -63.1745 -7.66944 -1.05898 62.7655 1.66793 -1.90719 -8.27383 -5.90666 2.03217e-016 0 3.88251e-019 -5.65092 -19.8038 -1.50377 -0.0606678 35.9354 -1.29529 10.6602 -27.0422 19.3772 
